<svg id="Layer_1" data-name="Layer 1" xmlns="http://www.w3.org/2000/svg" viewBox="0 0 1024 1024"><defs><style>.cls-1{fill:#183a3a;}.cls-2{fill:#161616;}.cls-3{fill:#fff;}.cls-4{fill:#ccaf93;}.cls-5{fill:#ad9179;}.cls-6{fill:#f9fbfb;}</style></defs><title>Logo IH 01</title><rect class="cls-1" width="1024" height="1024"/><rect class="cls-2" y="984.95" width="1024" height="39.05"/><path class="cls-3" d="M318.17,992.84h4.31a13.64,13.64,0,0,1,8.38,2.46,8.13,8.13,0,0,1,3.31,7,8.41,8.41,0,0,1-3.29,7.17,13.66,13.66,0,0,1-8.48,2.49h-4.23Zm2.6,16.93h.91a18.69,18.69,0,0,0,3.82-.37,9,9,0,0,0,3.13-1.24,6.5,6.5,0,0,0,2.14-2.28,6.89,6.89,0,0,0,.8-3.48,7.31,7.31,0,0,0-.78-3.51,5.75,5.75,0,0,0-2.2-2.28,10.72,10.72,0,0,0-3.11-1.21,17,17,0,0,0-3.8-.38h-.91Z"/><path class="cls-3" d="M338,1006.4a4.19,4.19,0,0,0,1.1,2.76,3.62,3.62,0,0,0,2.79,1.17,4,4,0,0,0,2.23-.57,5.89,5.89,0,0,0,1.64-1.74l2.11,1.09a6.53,6.53,0,0,1-2.51,2.38,7.13,7.13,0,0,1-3.49.86,6,6,0,0,1-6.36-6.23,6.6,6.6,0,0,1,1.63-4.61,6,6,0,0,1,4.67-1.78,5.64,5.64,0,0,1,4.51,1.78,6.64,6.64,0,0,1,1.55,4.53v.36Zm7.38-1.73a3.47,3.47,0,0,0-1.15-2.16,3.6,3.6,0,0,0-2.42-.8,3.88,3.88,0,0,0-1.34.22,3.56,3.56,0,0,0-1.11.62,3.49,3.49,0,0,0-.8,1,3.66,3.66,0,0,0-.43,1.17Z"/><path class="cls-3" d="M355.18,1002.8a1.78,1.78,0,0,0-1.66-1,1.49,1.49,0,0,0-.94.34,1,1,0,0,0-.41.83,1,1,0,0,0,.31.77,3.46,3.46,0,0,0,.87.6l.56.24.63.26a2.52,2.52,0,0,0,.39.15,1.22,1.22,0,0,1,.25.11,7,7,0,0,1,2.18,1.34,2.64,2.64,0,0,1,.8,2,3.58,3.58,0,0,1-1.32,2.81,4.67,4.67,0,0,1-3.13,1.11,5.44,5.44,0,0,1-2.72-.72,4.53,4.53,0,0,1-1.05-.83,3.71,3.71,0,0,1-.7-1.11l2.12-.88a2.7,2.7,0,0,0,2.35,1.52,2,2,0,0,0,1.08-.3,1.77,1.77,0,0,0,.73-.73,1.27,1.27,0,0,0,.1-1,1.81,1.81,0,0,0-.86-1l-2.43-1.19a9.86,9.86,0,0,1-1.1-.61,3.71,3.71,0,0,1-.78-.64,2.63,2.63,0,0,1-.46-.77,3.28,3.28,0,0,1,1-3.4,3.85,3.85,0,0,1,2.71-1,3.73,3.73,0,0,1,3.54,2.08Z"/><path class="cls-3" d="M364.1,994.66a1.41,1.41,0,0,1-.49,1.09,1.73,1.73,0,0,1-1.22.46,1.69,1.69,0,0,1-1.21-.46,1.42,1.42,0,0,1-.5-1.09,1.5,1.5,0,0,1,.5-1.12,1.66,1.66,0,0,1,1.21-.47,1.7,1.7,0,0,1,1.22.47A1.49,1.49,0,0,1,364.1,994.66Zm-.47,17.29h-2.48v-11.86h2.48Z"/><path class="cls-3" d="M379.72,1011.72a8.57,8.57,0,0,1-1.38,5.2q-1.38,1.82-4.92,1.82a6.81,6.81,0,0,1-4.48-1.44,5.07,5.07,0,0,1-1.77-3.93h2.49a3,3,0,0,0,1.06,2.47,4.33,4.33,0,0,0,2.81.87,3.32,3.32,0,0,0,2.92-1.14,5.58,5.58,0,0,0,.78-3.22v-2.25h-.05a5.56,5.56,0,0,1-1.92,1.66,5.26,5.26,0,0,1-2.47.59,5.77,5.77,0,0,1-4.54-1.85,6.55,6.55,0,0,1-1.66-4.56,6.15,6.15,0,0,1,1.69-4.36,5.67,5.67,0,0,1,4.39-1.85,5.23,5.23,0,0,1,4.51,2.39h.05v-2h2.49Zm-6.55-1.39a3.9,3.9,0,0,0,3.07-1.25,4.4,4.4,0,0,0,1.14-3.06,4.32,4.32,0,0,0-1.14-3,3.89,3.89,0,0,0-3.07-1.24,3.79,3.79,0,0,0-3,1.27,4.33,4.33,0,0,0-1.11,3,4.4,4.4,0,0,0,1.11,3A3.82,3.82,0,0,0,373.17,1010.33Z"/><path class="cls-3" d="M385.44,1001.68h.06a3.68,3.68,0,0,1,1.6-1.44,5.2,5.2,0,0,1,2.3-.51,5.72,5.72,0,0,1,2.15.36,3.4,3.4,0,0,1,1.42,1,4.1,4.1,0,0,1,.78,1.61,9.44,9.44,0,0,1,.23,2.17V1012H391.5v-6.79a4.6,4.6,0,0,0-.56-2.56,2.56,2.56,0,0,0-2.29-.84,4.13,4.13,0,0,0-1.08.12,2.55,2.55,0,0,0-.77.32,2.27,2.27,0,0,0-.56.5,5.88,5.88,0,0,0-.41.61,1.82,1.82,0,0,0-.15.45c-.05.19-.09.38-.13.57s-.06.39-.08.59,0,.35,0,.46V1012H383v-11.86h2.48Z"/><path class="cls-3" d="M405.2,990h2.49v12.11h.06a5.33,5.33,0,0,1,4.5-2.33,5.68,5.68,0,0,1,4.4,1.85,6.19,6.19,0,0,1,1.68,4.36,6.59,6.59,0,0,1-1.65,4.56,5.77,5.77,0,0,1-4.54,1.85,5.26,5.26,0,0,1-2.47-.59,5.38,5.38,0,0,1-1.92-1.66h-.06V1012H405.2Zm6.44,20.38a3.87,3.87,0,0,0,3.07-1.25,4.4,4.4,0,0,0,1.14-3.06,4.32,4.32,0,0,0-1.14-3,3.87,3.87,0,0,0-3.07-1.24,3.8,3.8,0,0,0-3,1.27,4.33,4.33,0,0,0-1.11,3,4.4,4.4,0,0,0,1.11,3A3.83,3.83,0,0,0,411.64,1010.33Z"/><path class="cls-3" d="M418.69,1000.09h2.91l4.36,7.52,4.06-7.52h2.8l-10.48,18.65h-2.82l5.09-8.82Z"/><path class="cls-3" d="M445.36,1007.16,443,1012H440.2L450.15,992l10,19.92h-2.79l-2.38-4.79Zm4.79-9.91-3.71,7.73h7.41Z"/><path class="cls-3" d="M464.16,1012h-2.49V990h2.49Z"/><path class="cls-3" d="M470.29,1012h-2.48V990h2.48Z"/><path class="cls-3" d="M479.75,1002.87v1.91H473.7v-1.91Z"/><path class="cls-3" d="M489.42,992.26a4.9,4.9,0,0,0-1.66-.48,1.37,1.37,0,0,0-1.16.46,2.79,2.79,0,0,0-.5,1.16c-.05.33-.08.6-.09.8s0,.46,0,.8v5.09h3.43v2.12H486V1012h-2.48v-9.74h-1.14v-2.12h1.14v-5.78q0-4.66,4.17-4.67a5.06,5.06,0,0,1,1.74.31Z"/><path class="cls-3" d="M493.26,1002h.08a3.87,3.87,0,0,1,1.39-1.67,3.8,3.8,0,0,1,2.15-.61,4.1,4.1,0,0,1,2.05.58l-1.13,2.09a2.41,2.41,0,0,0-1.52-.49,2.52,2.52,0,0,0-2.55,1.42,5.37,5.37,0,0,0-.37,1.31,9.31,9.31,0,0,0-.1,1.48V1012h-2.48v-11.86h2.48Z"/><path class="cls-3" d="M501.8,1006.4a4.25,4.25,0,0,0,1.11,2.76,3.62,3.62,0,0,0,2.79,1.17,4,4,0,0,0,2.23-.57,6,6,0,0,0,1.64-1.74l2.1,1.09a6.43,6.43,0,0,1-2.5,2.38,7.17,7.17,0,0,1-3.5.86,6,6,0,0,1-6.35-6.23,6.6,6.6,0,0,1,1.63-4.61,6,6,0,0,1,4.67-1.78,5.6,5.6,0,0,1,4.5,1.78,6.64,6.64,0,0,1,1.55,4.53v.36Zm7.39-1.73a3.36,3.36,0,0,0-3.57-3,3.88,3.88,0,0,0-1.34.22,3.45,3.45,0,0,0-1.11.62,3.49,3.49,0,0,0-.8,1,3.43,3.43,0,0,0-.43,1.17Z"/><path class="cls-3" d="M515.29,1006.4a4.25,4.25,0,0,0,1.11,2.76,3.59,3.59,0,0,0,2.78,1.17,4,4,0,0,0,2.23-.57,5.89,5.89,0,0,0,1.64-1.74l2.11,1.09a6.57,6.57,0,0,1-2.5,2.38,7.2,7.2,0,0,1-3.5.86,6,6,0,0,1-6.36-6.23,6.64,6.64,0,0,1,1.63-4.61,6,6,0,0,1,4.67-1.78,5.64,5.64,0,0,1,4.51,1.78,6.64,6.64,0,0,1,1.55,4.53v.36Zm7.38-1.73a3.47,3.47,0,0,0-1.15-2.16,3.58,3.58,0,0,0-2.42-.8,3.92,3.92,0,0,0-1.34.22,3.4,3.4,0,0,0-1.1.62,3.32,3.32,0,0,0-.8,1,3.24,3.24,0,0,0-.43,1.17Z"/><path class="cls-3" d="M533.2,1002.87v1.91h-6.05v-1.91Z"/><path class="cls-3" d="M546.11,1010.1h-.06a5.56,5.56,0,0,1-1.92,1.66,5.23,5.23,0,0,1-2.47.59,5.77,5.77,0,0,1-4.54-1.85,6.59,6.59,0,0,1-1.65-4.56,6.19,6.19,0,0,1,1.68-4.36,5.67,5.67,0,0,1,4.39-1.85,5.34,5.34,0,0,1,4.51,2.33h.06V990h2.49v22h-2.49Zm-4.07.23a3.89,3.89,0,0,0,3.07-1.25,4.39,4.39,0,0,0,1.13-3.06,4.31,4.31,0,0,0-1.13-3,3.88,3.88,0,0,0-3.07-1.24,3.79,3.79,0,0,0-3,1.27,4.32,4.32,0,0,0-1.1,3,4.39,4.39,0,0,0,1.1,3A3.82,3.82,0,0,0,542,1010.33Z"/><path class="cls-3" d="M552.66,1001.56a7,7,0,0,1,4.92-1.83,7,7,0,0,1,4.89,1.83,6,6,0,0,1,0,9,7,7,0,0,1-4.89,1.82,7,7,0,0,1-4.92-1.82,6,6,0,0,1,0-9Zm.49,4.48a4,4,0,0,0,1.3,2.92,4.36,4.36,0,0,0,3.13,1.21,4.42,4.42,0,0,0,3.12-1.21A4,4,0,0,0,562,1006a3.88,3.88,0,0,0-1.29-2.91,4.42,4.42,0,0,0-3.12-1.22,4.36,4.36,0,0,0-3.13,1.22A3.9,3.9,0,0,0,553.15,1006Z"/><path class="cls-3" d="M571.17,1007.64l3.82-8.21,3.79,8.21,3.75-7.55h2.82l-6.57,12.26-3.79-7.93-3.82,7.93-6.57-12.26h2.81Z"/><path class="cls-3" d="M589.08,1001.68h.06a3.65,3.65,0,0,1,1.61-1.44,5.16,5.16,0,0,1,2.29-.51,5.78,5.78,0,0,1,2.16.36,3.43,3.43,0,0,1,1.41,1,4,4,0,0,1,.78,1.61,8.92,8.92,0,0,1,.23,2.17V1012h-2.49v-6.79a4.61,4.61,0,0,0-.55-2.56,2.56,2.56,0,0,0-2.29-.84,4.18,4.18,0,0,0-1.08.12,2.55,2.55,0,0,0-.77.32,2.47,2.47,0,0,0-.56.5,5.88,5.88,0,0,0-.41.61,3.36,3.36,0,0,0-.15.45,5.78,5.78,0,0,0-.12.57c0,.2-.07.39-.09.59s0,.35,0,.46V1012H586.6v-11.86h2.48Z"/><path class="cls-3" d="M603.65,1012h-2.49V990h2.49Z"/><path class="cls-3" d="M608,1001.56a7,7,0,0,1,4.92-1.83,7,7,0,0,1,4.89,1.83,6,6,0,0,1,0,9,7,7,0,0,1-4.89,1.82,7,7,0,0,1-4.92-1.82,6,6,0,0,1,0-9Zm.5,4.48a4,4,0,0,0,1.29,2.92,4.64,4.64,0,0,0,6.25,0,4,4,0,0,0,1.3-2.92,3.93,3.93,0,0,0-1.3-2.91,4.61,4.61,0,0,0-6.25,0A3.92,3.92,0,0,0,608.52,1006Z"/><path class="cls-3" d="M634.25,1012h-2.49v-1.85h0a5.22,5.22,0,0,1-4.4,2.25,5.83,5.83,0,0,1-4.54-1.85,6.59,6.59,0,0,1-1.65-4.56,6.19,6.19,0,0,1,1.68-4.36,5.73,5.73,0,0,1,4.43-1.85,5.34,5.34,0,0,1,4.48,2.33h0v-2h2.49Zm-6.55-1.62a3.88,3.88,0,0,0,3.06-1.25,4.4,4.4,0,0,0,1.14-3.06,4.32,4.32,0,0,0-1.14-3,3.87,3.87,0,0,0-3.06-1.24,3.79,3.79,0,0,0-3,1.27,4.32,4.32,0,0,0-1.1,3,4.39,4.39,0,0,0,1.1,3A3.82,3.82,0,0,0,627.7,1010.33Z"/><path class="cls-3" d="M647.12,1010.1h0a5.47,5.47,0,0,1-1.92,1.66,5.23,5.23,0,0,1-2.47.59,5.74,5.74,0,0,1-4.53-1.85,6.56,6.56,0,0,1-1.67-4.56,6.15,6.15,0,0,1,1.69-4.36,5.69,5.69,0,0,1,4.39-1.85,5.34,5.34,0,0,1,4.51,2.33h0V990h2.49v22h-2.49Zm-4,.23a3.89,3.89,0,0,0,3.06-1.25,4.39,4.39,0,0,0,1.13-3.06,4.31,4.31,0,0,0-1.13-3,3.89,3.89,0,0,0-3.06-1.24,3.79,3.79,0,0,0-3,1.27,4.33,4.33,0,0,0-1.11,3,4.4,4.4,0,0,0,1.11,3A3.82,3.82,0,0,0,643.07,1010.33Z"/><path class="cls-3" d="M656.75,1010.88a1.36,1.36,0,0,1-.47,1,1.64,1.64,0,0,1-1.14.43,1.6,1.6,0,0,1-1.13-.43,1.36,1.36,0,0,1,0-2.06,1.56,1.56,0,0,1,1.13-.44,1.6,1.6,0,0,1,1.14.44A1.36,1.36,0,0,1,656.75,1010.88Z"/><path class="cls-3" d="M670.35,1003.46a5,5,0,0,0-3.71-1.6,4.27,4.27,0,0,0-3.07,1.24,4.05,4.05,0,0,0-1.24,2.92,3.92,3.92,0,0,0,1.24,3,4.61,4.61,0,0,0,3.24,1.2,4.85,4.85,0,0,0,3.54-1.58v2.92a8.09,8.09,0,0,1-3.57.78,7.13,7.13,0,0,1-4.92-1.8,5.64,5.64,0,0,1-2-4.43,5.87,5.87,0,0,1,2-4.56,7.24,7.24,0,0,1,5.06-1.83,7.12,7.12,0,0,1,3.43.79Z"/><path class="cls-3" d="M673.86,1001.56a7,7,0,0,1,4.91-1.83,6.93,6.93,0,0,1,4.89,1.83,6,6,0,0,1,0,9,6.93,6.93,0,0,1-4.89,1.82,7,7,0,0,1-4.91-1.82,6,6,0,0,1,0-9Zm.49,4.48a4,4,0,0,0,1.3,2.92,4.35,4.35,0,0,0,3.12,1.21,4.42,4.42,0,0,0,3.13-1.21,4,4,0,0,0,1.3-2.92,3.93,3.93,0,0,0-1.3-2.91,4.43,4.43,0,0,0-3.13-1.22,4.36,4.36,0,0,0-3.12,1.22A3.9,3.9,0,0,0,674.35,1006Z"/><path class="cls-3" d="M690.35,1001.58h.06a4.33,4.33,0,0,1,1.48-1.33,4,4,0,0,1,1.94-.52,4.19,4.19,0,0,1,3.74,2.11,4.36,4.36,0,0,1,1.67-1.54,4.82,4.82,0,0,1,2.31-.57c2.86,0,4.28,1.71,4.28,5.12v7.1h-2.49v-6.72c0-.3,0-.6,0-.9a5,5,0,0,0-.15-.86,2.53,2.53,0,0,0-.33-.77,2.3,2.3,0,0,0-.61-.64,2.44,2.44,0,0,0-1.27-.3,2.75,2.75,0,0,0-1.33.3,2.34,2.34,0,0,0-.81.7,3.65,3.65,0,0,0-.46,1,8.79,8.79,0,0,0-.21,1.14c0,.34,0,.73,0,1.17V1012h-2.48v-6.29c0-.4,0-.74,0-1a8.87,8.87,0,0,0-.16-1,2.68,2.68,0,0,0-.37-1,2,2,0,0,0-.69-.63,2.13,2.13,0,0,0-1.13-.28,2.34,2.34,0,0,0-2.46,1.52,6.22,6.22,0,0,0-.33,1.34,11,11,0,0,0-.09,1.5V1012h-2.48v-11.86h2.48Z"/><rect class="cls-3" x="260.19" y="1003.41" width="35.21" height="1.58"/><rect class="cls-3" x="728.61" y="1003.41" width="35.2" height="1.58"/><path class="cls-4" d="M285.29,606.8H269.13v-1.6l1.63-.12a5.46,5.46,0,0,0,1.49-.25,1.93,1.93,0,0,0,1-.81,2.67,2.67,0,0,0,.28-1.28V582.09a2.65,2.65,0,0,0-.27-1.23,1.9,1.9,0,0,0-1.05-.86,9.51,9.51,0,0,0-1.45-.43c-.65-.14-1.2-.24-1.67-.3v-1.6h16.16v1.6l-1.54.18a8.5,8.5,0,0,0-1.56.32,1.67,1.67,0,0,0-1.07.83,2.93,2.93,0,0,0-.27,1.28v20.63a2.74,2.74,0,0,0,.28,1.27,2,2,0,0,0,1.06.85,7.62,7.62,0,0,0,1.42.36,13.16,13.16,0,0,0,1.68.21Z"/><path class="cls-4" d="M329.87,579.27c-.38.05-.93.12-1.64.23a4.3,4.3,0,0,0-1.93.8,3.11,3.11,0,0,0-1.08,1.9,18.49,18.49,0,0,0-.32,3.95V607h-3.65L303.1,584.45v13.67a16.38,16.38,0,0,0,.34,3.87,3.49,3.49,0,0,0,1.1,1.94,4.92,4.92,0,0,0,1.76.8,19.1,19.1,0,0,0,1.93.47v1.6H295.71v-1.6a14,14,0,0,0,1.84-.29,4.81,4.81,0,0,0,1.73-.73,3.11,3.11,0,0,0,1.1-1.8,18.7,18.7,0,0,0,.3-4v-13.8a5.94,5.94,0,0,0-.32-1.94,4,4,0,0,0-1-1.57,5.6,5.6,0,0,0-1.65-1.1,10.53,10.53,0,0,0-2.13-.62v-1.65h11l15.93,19.71v-11a16.15,16.15,0,0,0-.35-3.91,3.51,3.51,0,0,0-1.11-1.9,5,5,0,0,0-1.76-.81c-.78-.23-1.42-.38-1.89-.47v-1.6h12.5Z"/><path class="cls-4" d="M367.18,586h-1.6a17.41,17.41,0,0,0-2-4c-.93-1.43-1.8-2.19-2.59-2.3-.44-.06-1-.11-1.62-.15s-1.19-.06-1.66-.06h-1v22.85a3,3,0,0,0,.27,1.3,1.91,1.91,0,0,0,1,.9,9.4,9.4,0,0,0,1.46.38c.67.13,1.23.22,1.7.27v1.6H345v-1.6l1.67-.17a5.68,5.68,0,0,0,1.47-.28,1.94,1.94,0,0,0,1.07-.88,3,3,0,0,0,.26-1.31V579.5h-1c-.46,0-1,0-1.66.06s-1.18.09-1.62.15c-.79.11-1.65.87-2.59,2.3a17.75,17.75,0,0,0-2,4H339v-8.34h28.23Z"/><path class="cls-4" d="M403.1,585.11h-1.56a10.9,10.9,0,0,0-2.05-3.36,5.56,5.56,0,0,0-2.9-2,8.58,8.58,0,0,0-1.71-.18l-1.82,0h-4.23v11.23h3a7.66,7.66,0,0,0,2.05-.26,3.92,3.92,0,0,0,1.68-1,5.12,5.12,0,0,0,1-1.66,10.46,10.46,0,0,0,.63-2.08h1.56V597.9h-1.56a11.25,11.25,0,0,0-.63-2.17,5.94,5.94,0,0,0-1-1.8,3.45,3.45,0,0,0-1.6-1,7.19,7.19,0,0,0-2.13-.28h-3V601a8.78,8.78,0,0,0,.2,2.08,2.09,2.09,0,0,0,.72,1.18,3,3,0,0,0,1.41.51,17.31,17.31,0,0,0,2.43.13l1.73,0a16.57,16.57,0,0,0,1.76-.13,12.3,12.3,0,0,0,1.62-.3,2.34,2.34,0,0,0,1.11-.6,16.47,16.47,0,0,0,2.22-3.07,21.78,21.78,0,0,0,1.62-3.09h1.5l-.55,9.07H377.27v-1.6c.39,0,.91-.08,1.56-.16a6.06,6.06,0,0,0,1.4-.29,2,2,0,0,0,1-.83,2.8,2.8,0,0,0,.26-1.28V582.09a2.89,2.89,0,0,0-.22-1.22,2.11,2.11,0,0,0-1.09-.87,7.12,7.12,0,0,0-1.5-.46c-.64-.13-1.13-.22-1.46-.27v-1.6H403.1Z"/><path class="cls-4" d="M449.45,606.8H438.27c-1.93-2.95-3.53-5.31-4.81-7.06s-2.87-3.77-4.77-6.07h-1.13v8.84a2.58,2.58,0,0,0,.28,1.26,2.11,2.11,0,0,0,1.06.86,7.33,7.33,0,0,0,1.22.34c.55.11,1,.19,1.42.23v1.6H416v-1.6l1.57-.17a5.67,5.67,0,0,0,1.39-.28,2,2,0,0,0,1.05-.83,2.8,2.8,0,0,0,.26-1.28V582.09a3,3,0,0,0-.22-1.23A2,2,0,0,0,419,580a9.3,9.3,0,0,0-1.55-.46l-1.41-.27v-1.6h16.34c3.66,0,6.43.58,8.33,1.72a5.66,5.66,0,0,1,2.84,5.18,6.87,6.87,0,0,1-1.75,4.92,11.68,11.68,0,0,1-5.35,2.9q1.39,1.82,3.25,4.19t3.87,4.87c.43.53,1,1.18,1.74,2a5,5,0,0,0,1.94,1.42,7.51,7.51,0,0,0,1.2.25c.48.07.83.11,1,.12Zm-14-21.65a5.19,5.19,0,0,0-1.64-4.26,7.1,7.1,0,0,0-4.65-1.35h-1.62v12.2h1.56a6.54,6.54,0,0,0,4.68-1.58Q435.47,588.57,435.47,585.15Z"/><path class="cls-4" d="M491.4,579.27c-.38.05-.93.12-1.64.23a4.3,4.3,0,0,0-1.93.8,3.11,3.11,0,0,0-1.08,1.9,18.49,18.49,0,0,0-.32,3.95V607h-3.65l-18.15-22.52v13.67A16.38,16.38,0,0,0,465,602a3.49,3.49,0,0,0,1.1,1.94,4.92,4.92,0,0,0,1.76.8,19.1,19.1,0,0,0,1.93.47v1.6H457.24v-1.6a14,14,0,0,0,1.84-.29,4.88,4.88,0,0,0,1.73-.73,3.11,3.11,0,0,0,1.1-1.8,18.7,18.7,0,0,0,.3-4v-13.8a5.94,5.94,0,0,0-.32-1.94,4,4,0,0,0-1-1.57,5.6,5.6,0,0,0-1.65-1.1,10.53,10.53,0,0,0-2.13-.62v-1.65h11L484,597.38v-11a16.15,16.15,0,0,0-.35-3.91,3.51,3.51,0,0,0-1.11-1.9,5,5,0,0,0-1.77-.81c-.78-.23-1.41-.38-1.88-.47v-1.6h12.5Z"/><path class="cls-4" d="M533.25,606.8H517.38v-1.6a17.86,17.86,0,0,0,2.6-.4c1-.21,1.5-.47,1.5-.79a2.62,2.62,0,0,0,0-.37,2.43,2.43,0,0,0-.18-.55l-2.48-6H508.73c-.23.57-.49,1.22-.77,2s-.52,1.43-.72,2a10.54,10.54,0,0,0-.46,1.66,5.49,5.49,0,0,0-.07.72c0,.44.33.81,1,1.12a10.67,10.67,0,0,0,3.32.66v1.6H499.07v-1.6a9.58,9.58,0,0,0,1.53-.21,4.3,4.3,0,0,0,1.34-.48,5.26,5.26,0,0,0,1.43-1.21,6.41,6.41,0,0,0,1-1.71L509.12,590q2.38-5.79,5.28-12.77h4.11q4,9.9,6.3,15.65t3.88,9.52a4.53,4.53,0,0,0,.68,1.12,4.18,4.18,0,0,0,1.17,1,5,5,0,0,0,1.33.49,8.66,8.66,0,0,0,1.38.2ZM517.94,595l-4.21-10.53L509.57,595Z"/><path class="cls-4" d="M569.33,597.47l-.58,9.33H541.92v-1.6c.48,0,1-.1,1.69-.19a6.9,6.9,0,0,0,1.27-.26,2,2,0,0,0,1-.8,2.68,2.68,0,0,0,.28-1.31V582.09a2.89,2.89,0,0,0-.22-1.22,2.11,2.11,0,0,0-1.09-.87,6.6,6.6,0,0,0-1.53-.47l-1.43-.26v-1.6h16v1.6c-.44.05-1,.1-1.55.18a8.94,8.94,0,0,0-1.55.32,1.67,1.67,0,0,0-1.07.83,2.93,2.93,0,0,0-.27,1.28V601a9.21,9.21,0,0,0,.19,2.13,1.86,1.86,0,0,0,.71,1.15,3.12,3.12,0,0,0,1.49.5,22.49,22.49,0,0,0,2.64.12,25.41,25.41,0,0,0,3.19-.2,3.82,3.82,0,0,0,2.23-.85,14.55,14.55,0,0,0,2.15-2.95,30.54,30.54,0,0,0,1.75-3.47Z"/><path class="cls-4" d="M606.23,586h-1.6a17.41,17.41,0,0,0-2-4c-.93-1.43-1.8-2.19-2.59-2.3-.44-.06-1-.11-1.62-.15s-1.19-.06-1.66-.06h-1v22.85a3,3,0,0,0,.27,1.3,1.91,1.91,0,0,0,1.05.9,9.4,9.4,0,0,0,1.46.38c.67.13,1.23.22,1.7.27v1.6H584v-1.6l1.67-.17a5.68,5.68,0,0,0,1.47-.28,1.94,1.94,0,0,0,1.07-.88,3,3,0,0,0,.26-1.31V579.5h-1c-.46,0-1,0-1.66.06s-1.18.09-1.62.15c-.79.11-1.65.87-2.59,2.3a17.75,17.75,0,0,0-2,4H578v-8.34h28.23Z"/><path class="cls-4" d="M632.36,606.8H616.2v-1.6l1.63-.12a5.46,5.46,0,0,0,1.49-.25,1.93,1.93,0,0,0,1-.81,2.67,2.67,0,0,0,.27-1.28V582.09a2.65,2.65,0,0,0-.26-1.23,1.9,1.9,0,0,0-1-.86,9.35,9.35,0,0,0-1.46-.43c-.64-.14-1.19-.24-1.66-.3v-1.6h16.16v1.6l-1.54.18a8.5,8.5,0,0,0-1.56.32,1.67,1.67,0,0,0-1.07.83,2.93,2.93,0,0,0-.27,1.28v20.63a2.74,2.74,0,0,0,.28,1.27,2,2,0,0,0,1.06.85,7.41,7.41,0,0,0,1.42.36,13.16,13.16,0,0,0,1.68.21Z"/><path class="cls-4" d="M676.94,579.27c-.39.05-.93.12-1.64.23a4.3,4.3,0,0,0-1.93.8,3.11,3.11,0,0,0-1.08,1.9,18.49,18.49,0,0,0-.32,3.95V607h-3.66l-18.14-22.52v13.67a16.38,16.38,0,0,0,.34,3.87,3.49,3.49,0,0,0,1.1,1.94,4.92,4.92,0,0,0,1.76.8,19.1,19.1,0,0,0,1.93.47v1.6H642.78v-1.6a14,14,0,0,0,1.84-.29,4.88,4.88,0,0,0,1.73-.73,3.11,3.11,0,0,0,1.1-1.8,18.7,18.7,0,0,0,.3-4v-13.8a5.94,5.94,0,0,0-.32-1.94,4,4,0,0,0-1-1.57,5.6,5.6,0,0,0-1.65-1.1,10.53,10.53,0,0,0-2.13-.62v-1.65h11l15.93,19.71v-11a16.15,16.15,0,0,0-.35-3.91,3.51,3.51,0,0,0-1.11-1.9,5,5,0,0,0-1.77-.81c-.78-.23-1.41-.38-1.88-.47v-1.6h12.5Z"/><path class="cls-4" d="M718.79,606.8H702.92v-1.6a17.86,17.86,0,0,0,2.6-.4c1-.21,1.5-.47,1.5-.79a2.62,2.62,0,0,0,0-.37,2.43,2.43,0,0,0-.18-.55l-2.48-6H694.27c-.23.57-.49,1.22-.77,2s-.52,1.43-.72,2a10.54,10.54,0,0,0-.46,1.66,5.49,5.49,0,0,0-.07.72c0,.44.33.81,1,1.12a10.67,10.67,0,0,0,3.32.66v1.6H684.61v-1.6a9.58,9.58,0,0,0,1.53-.21,4.4,4.4,0,0,0,1.34-.48,5.26,5.26,0,0,0,1.43-1.21,6.41,6.41,0,0,0,1-1.71L694.66,590q2.39-5.79,5.28-12.77h4.11q4,9.9,6.3,15.65t3.88,9.52a4.53,4.53,0,0,0,.68,1.12,4.18,4.18,0,0,0,1.17,1,5,5,0,0,0,1.33.49,8.66,8.66,0,0,0,1.38.2ZM703.48,595l-4.22-10.53L695.11,595Z"/><path class="cls-4" d="M754.87,597.47l-.58,9.33H727.46v-1.6c.48,0,1-.1,1.69-.19a6.9,6.9,0,0,0,1.27-.26,1.89,1.89,0,0,0,1-.8,2.57,2.57,0,0,0,.29-1.31V582.09a2.89,2.89,0,0,0-.22-1.22,2.11,2.11,0,0,0-1.09-.87,6.91,6.91,0,0,0-1.53-.47l-1.43-.26v-1.6h16v1.6c-.44.05-1,.1-1.55.18a8.94,8.94,0,0,0-1.55.32,1.67,1.67,0,0,0-1.07.83,2.93,2.93,0,0,0-.27,1.28V601a9.21,9.21,0,0,0,.19,2.13,1.86,1.86,0,0,0,.71,1.15,3.12,3.12,0,0,0,1.49.5,22.49,22.49,0,0,0,2.64.12,25.41,25.41,0,0,0,3.19-.2,3.82,3.82,0,0,0,2.23-.85,14.18,14.18,0,0,0,2.14-2.95,29.16,29.16,0,0,0,1.76-3.47Z"/><path class="cls-4" d="M371.67,657.26H355.92v-1.6l1.5-.13a4.68,4.68,0,0,0,1.36-.24,2.07,2.07,0,0,0,1-.81,2.62,2.62,0,0,0,.29-1.29v-10H347.67V653a2.6,2.6,0,0,0,.3,1.25,1.94,1.94,0,0,0,1,.86,7.35,7.35,0,0,0,1.34.35,14.5,14.5,0,0,0,1.54.23v1.6H336.11v-1.6c.34,0,.85-.06,1.51-.14a7.38,7.38,0,0,0,1.45-.27,1.76,1.76,0,0,0,1-.82,2.6,2.6,0,0,0,.29-1.28V632.54a2.61,2.61,0,0,0-.25-1.21,2.16,2.16,0,0,0-1.06-.86,8.79,8.79,0,0,0-1.56-.49,11.82,11.82,0,0,0-1.4-.25v-1.6h15.75v1.6a11.39,11.39,0,0,0-1.52.2c-.59.11-1,.22-1.36.31a1.62,1.62,0,0,0-1.05.85,2.94,2.94,0,0,0-.26,1.24V641h12.44v-8.5a2.49,2.49,0,0,0-.27-1.21,2.12,2.12,0,0,0-1.06-.86,7.53,7.53,0,0,0-1.43-.46,11.26,11.26,0,0,0-1.43-.28v-1.6h15.75v1.6a13,13,0,0,0-1.48.17,12.07,12.07,0,0,0-1.48.34,1.65,1.65,0,0,0-1,.84,2.93,2.93,0,0,0-.27,1.25V653a2.65,2.65,0,0,0,.27,1.25,2,2,0,0,0,1,.86,7,7,0,0,0,1.43.37q.93.16,1.53.21Z"/><path class="cls-4" d="M414.52,657.26H398.66v-1.6a19.79,19.79,0,0,0,2.6-.41c1-.21,1.49-.47,1.49-.79a2.38,2.38,0,0,0,0-.36,3,3,0,0,0-.17-.56l-2.49-6H390c-.24.56-.49,1.21-.77,2s-.52,1.42-.72,2a9.52,9.52,0,0,0-.46,1.66,6.06,6.06,0,0,0-.08.72c0,.44.34.81,1,1.12a10.83,10.83,0,0,0,3.31.67v1.6h-12v-1.6a10.82,10.82,0,0,0,1.53-.22,4.37,4.37,0,0,0,1.35-.48,5.21,5.21,0,0,0,1.42-1.21,6.43,6.43,0,0,0,1-1.71q2.38-5.76,4.77-11.56l5.29-12.76h4.1q4,9.88,6.31,15.64t3.88,9.52a4.32,4.32,0,0,0,.67,1.12,4.49,4.49,0,0,0,1.17,1,4.72,4.72,0,0,0,1.34.49,10,10,0,0,0,1.37.21Zm-15.3-11.79L395,634.94l-4.15,10.53Z"/><path class="cls-4" d="M456.64,657.26H445.46q-2.9-4.44-4.81-7.06c-1.28-1.76-2.87-3.78-4.77-6.08h-1.12V653a2.65,2.65,0,0,0,.27,1.25,2.15,2.15,0,0,0,1.06.86,7.63,7.63,0,0,0,1.22.34,13.28,13.28,0,0,0,1.43.24v1.6H423.2v-1.6l1.57-.18a5.78,5.78,0,0,0,1.39-.28,2,2,0,0,0,1-.83,2.67,2.67,0,0,0,.27-1.28V632.54a3,3,0,0,0-.23-1.23,1.94,1.94,0,0,0-1.08-.86,8.72,8.72,0,0,0-1.55-.45q-.9-.19-1.41-.27v-1.6h16.34q5.49,0,8.32,1.71a5.65,5.65,0,0,1,2.85,5.18,6.88,6.88,0,0,1-1.76,4.92,11.74,11.74,0,0,1-5.34,2.91c.93,1.2,2,2.6,3.25,4.18s2.53,3.21,3.87,4.87c.42.53,1,1.19,1.73,2a5.21,5.21,0,0,0,1.94,1.43,9.71,9.71,0,0,0,1.2.24l1,.13Zm-14-21.66a5.21,5.21,0,0,0-1.63-4.26,7.12,7.12,0,0,0-4.65-1.34h-1.62v12.19h1.56a6.54,6.54,0,0,0,4.68-1.58Q442.67,639,442.66,635.6Z"/><path class="cls-4" d="M496.6,629.77a6,6,0,0,0-1.29.25,5.42,5.42,0,0,0-1.27.57,5,5,0,0,0-1.37,1.1,7.43,7.43,0,0,0-.95,1.61c-.43.94-1,2.32-1.79,4.14s-1.64,3.87-2.63,6.19q-1.31,3.12-2.84,6.83l-2.93,7.13h-4.12l-5.85-14.31q-3-7.28-4.19-10.1a7.27,7.27,0,0,0-.91-1.55,5.47,5.47,0,0,0-1.41-1.08,6.08,6.08,0,0,0-1.23-.54,9.34,9.34,0,0,0-1.42-.28v-1.6h15.79v1.56a14.62,14.62,0,0,0-3,.56c-.52.2-.79.45-.79.75a1.72,1.72,0,0,0,.08.48,6.73,6.73,0,0,0,.21.69q.66,1.8,2.38,5.9c1.15,2.73,2.85,6.88,5.11,12.48,1.38-3.41,2.53-6.28,3.45-8.64s1.72-4.43,2.42-6.23c.34-.88.63-1.69.85-2.45a6.49,6.49,0,0,0,.34-1.72c0-.43-.31-.8-.94-1.09a11.48,11.48,0,0,0-3.49-.65v-1.64h11.8Z"/><path class="cls-4" d="M531.41,635.56h-1.56a10.9,10.9,0,0,0-2.05-3.36,5.52,5.52,0,0,0-2.9-2,9.4,9.4,0,0,0-1.71-.18l-1.82,0h-4.23v11.22h3a7.28,7.28,0,0,0,2.05-.26,3.91,3.91,0,0,0,1.69-1,5.21,5.21,0,0,0,1-1.66,10.46,10.46,0,0,0,.63-2.08H527v12.16h-1.56a10,10,0,0,0-.63-2.17,6,6,0,0,0-1-1.8,3.5,3.5,0,0,0-1.6-1,7.3,7.3,0,0,0-2.14-.28h-3v8.4a8.78,8.78,0,0,0,.2,2.08,2.05,2.05,0,0,0,.73,1.18,2.93,2.93,0,0,0,1.4.51,17.37,17.37,0,0,0,2.44.13l1.72,0q1,0,1.77-.12a12.42,12.42,0,0,0,1.61-.31,2.42,2.42,0,0,0,1.12-.6,17,17,0,0,0,2.21-3.07,23.26,23.26,0,0,0,1.63-3.09h1.49l-.55,9.08H505.59v-1.6c.38,0,.9-.09,1.56-.17a6.07,6.07,0,0,0,1.39-.29,2,2,0,0,0,1-.83,2.67,2.67,0,0,0,.27-1.28V632.54a2.89,2.89,0,0,0-.23-1.22,2.07,2.07,0,0,0-1.09-.87A6.47,6.47,0,0,0,507,630c-.64-.14-1.13-.23-1.45-.27v-1.6h25.82Z"/><path class="cls-4" d="M556.53,658.06a18.06,18.06,0,0,1-5-.67,18.27,18.27,0,0,1-3.91-1.57l-1.42,1.44h-1.74l-.27-10.53H546a27.2,27.2,0,0,0,1.52,3.16,14.92,14.92,0,0,0,2.13,3,11.23,11.23,0,0,0,2.8,2.24,7.33,7.33,0,0,0,3.63.86,6.11,6.11,0,0,0,4.28-1.36,4.48,4.48,0,0,0,1.49-3.44,3.72,3.72,0,0,0-1.27-2.87,10.63,10.63,0,0,0-3.91-2l-3.17-1c-1-.31-1.87-.64-2.72-1A8.92,8.92,0,0,1,546.4,641a8.69,8.69,0,0,1-1.43-4.87,7.7,7.7,0,0,1,.74-3.28,8.52,8.52,0,0,1,2.16-2.82,10.52,10.52,0,0,1,3.47-1.91,13.64,13.64,0,0,1,4.59-.74,14.83,14.83,0,0,1,4.54.67,19.59,19.59,0,0,1,3.33,1.36l1.25-1.23h1.79l.16,9.93h-1.77c-.41-1.07-.89-2.16-1.44-3.28A14.3,14.3,0,0,0,562,632a8,8,0,0,0-2.32-1.9,6.4,6.4,0,0,0-3.08-.71,5.28,5.28,0,0,0-3.62,1.25,4,4,0,0,0-1.41,3.11,3.69,3.69,0,0,0,1.23,2.86,10.5,10.5,0,0,0,3.8,1.95l3.1,1c1.06.34,2,.67,2.82,1a10.13,10.13,0,0,1,4.52,3.18,8.53,8.53,0,0,1,.67,8.68,8.38,8.38,0,0,1-2.38,2.94,12.09,12.09,0,0,1-3.8,2A16.51,16.51,0,0,1,556.53,658.06Z"/><path class="cls-4" d="M607.09,636.46h-1.61a18,18,0,0,0-2-4c-.94-1.43-1.8-2.19-2.6-2.3-.43,0-1-.1-1.61-.14s-1.2-.07-1.66-.07h-1V652.8a3,3,0,0,0,.26,1.31,1.94,1.94,0,0,0,1,.89,9.28,9.28,0,0,0,1.47.38c.66.13,1.22.22,1.69.28v1.6H584.85v-1.6l1.67-.18a5.68,5.68,0,0,0,1.47-.28,1.9,1.9,0,0,0,1.07-.88,2.94,2.94,0,0,0,.27-1.31V630h-1c-.46,0-1,0-1.65.07s-1.19.09-1.62.14c-.79.11-1.66.87-2.59,2.3a17.61,17.61,0,0,0-2,4h-1.6v-8.33h28.23Z"/><path class="cls-4" d="M643,635.56h-1.56a10.71,10.71,0,0,0-2.05-3.36,5.52,5.52,0,0,0-2.9-2,9.4,9.4,0,0,0-1.71-.18L633,630h-4.23v11.22h3a7.4,7.4,0,0,0,2.06-.26,3.94,3.94,0,0,0,1.68-1,5.21,5.21,0,0,0,.95-1.66,10.46,10.46,0,0,0,.63-2.08h1.56v12.16h-1.56a10,10,0,0,0-.63-2.17,6,6,0,0,0-.95-1.8,3.5,3.5,0,0,0-1.6-1,7.3,7.3,0,0,0-2.14-.28h-3v8.4a8.78,8.78,0,0,0,.2,2.08,2.05,2.05,0,0,0,.73,1.18,2.93,2.93,0,0,0,1.4.51,17.37,17.37,0,0,0,2.44.13l1.72,0q1,0,1.77-.12a12.42,12.42,0,0,0,1.61-.31,2.42,2.42,0,0,0,1.12-.6,17,17,0,0,0,2.21-3.07,21.05,21.05,0,0,0,1.63-3.09h1.5l-.56,9.08H617.18v-1.6c.38,0,.9-.09,1.56-.17a6.07,6.07,0,0,0,1.39-.29,2,2,0,0,0,1-.83,2.67,2.67,0,0,0,.27-1.28V632.54a2.89,2.89,0,0,0-.23-1.22,2.07,2.07,0,0,0-1.09-.87,6.47,6.47,0,0,0-1.5-.45c-.64-.14-1.12-.23-1.45-.27v-1.6H643Z"/><path class="cls-4" d="M689.35,657.26H678.17q-2.89-4.44-4.81-7.06c-1.28-1.76-2.87-3.78-4.77-6.08h-1.13V653a2.65,2.65,0,0,0,.28,1.25,2.15,2.15,0,0,0,1.06.86,7.63,7.63,0,0,0,1.22.34,12.88,12.88,0,0,0,1.43.24v1.6H655.91v-1.6l1.57-.18a5.57,5.57,0,0,0,1.38-.28,2,2,0,0,0,1-.83,2.67,2.67,0,0,0,.27-1.28V632.54a3,3,0,0,0-.23-1.23,1.93,1.93,0,0,0-1.09-.86,8.25,8.25,0,0,0-1.55-.45c-.59-.13-1.06-.22-1.4-.27v-1.6h16.34c3.65,0,6.43.57,8.32,1.71a5.65,5.65,0,0,1,2.85,5.18,6.88,6.88,0,0,1-1.76,4.92,11.72,11.72,0,0,1-5.35,2.91l3.26,4.18q1.84,2.38,3.87,4.87c.42.53,1,1.19,1.73,2a5.13,5.13,0,0,0,1.94,1.43,9.34,9.34,0,0,0,1.2.24l1,.13Zm-14-21.66a5.24,5.24,0,0,0-1.63-4.26,7.12,7.12,0,0,0-4.65-1.34h-1.63v12.19H669a6.51,6.51,0,0,0,4.68-1.58Q675.36,639,675.37,635.6Z"/><rect class="cls-5" x="450.52" y="431.3" width="132.32" height="26.29"/><rect class="cls-5" x="514.84" y="431.3" width="68.01" height="26.29"/><circle class="cls-6" cx="515.56" cy="330.65" r="21.05"/><path class="cls-4" d="M515.56,345.62a21.06,21.06,0,0,1-20.83-18,21.75,21.75,0,0,0-.22,3,21,21,0,0,0,42.1,0,21.75,21.75,0,0,0-.22-3A21.06,21.06,0,0,1,515.56,345.62Z"/><path class="cls-6" d="M470,494.38v-91.5a29.64,29.64,0,0,1,2.72-11.68A42.22,42.22,0,0,1,477,384H424.07q7,6.86,7,18.72v91.67q0,11.49-6.65,19.23l0,0h52.2a25.81,25.81,0,0,1-2.92-4.11A29.7,29.7,0,0,1,470,494.38Z"/><path class="cls-4" d="M450.52,409.71v78.2c0,22.59-22.83,25.4-26.07,25.7q6.65-7.74,6.65-19.23V402.71q0-11.86-7-18.72S450.52,385.4,450.52,409.71Z"/><path class="cls-5" d="M473.71,509.52a26.1,26.1,0,0,0,2.89,4.09c-3.24-.3-26.08-3.11-26.08-25.7v-78.2C450.52,385.4,477,384,477,384a42.22,42.22,0,0,0-4.3,7.21A29.64,29.64,0,0,0,470,402.88v91.5A29.71,29.71,0,0,0,473.71,509.52Z"/><path class="cls-6" d="M600,494.38v-91.5a29.67,29.67,0,0,1,2.73-11.68,42.22,42.22,0,0,1,4.3-7.21H554.14q7,6.86,7,18.72v91.67q0,11.49-6.65,19.23l0,0H606.7a26.53,26.53,0,0,1-2.93-4.11A29.8,29.8,0,0,1,600,494.38Z"/><path class="cls-4" d="M580.59,409.71v78.2c0,22.59-22.83,25.4-26.07,25.7q6.65-7.74,6.65-19.23V402.71q0-11.86-7-18.72S580.59,385.4,580.59,409.71Z"/><path class="cls-5" d="M603.77,509.52a26.17,26.17,0,0,0,2.9,4.09c-3.24-.3-26.08-3.11-26.08-25.7v-78.2c0-24.31,26.46-25.72,26.46-25.72a42.22,42.22,0,0,0-4.3,7.21A29.67,29.67,0,0,0,600,402.88v91.5A29.8,29.8,0,0,0,603.77,509.52Z"/><path class="cls-6" d="M535,507.23V390a29.82,29.82,0,0,1,2.72-11.69,43.3,43.3,0,0,1,4.3-7.21H489.1q7,6.86,7,18.73V507.23q0,11.49-6.66,19.22l0,0h52.21a26.53,26.53,0,0,1-2.93-4.11A29.8,29.8,0,0,1,535,507.23Z"/><path class="cls-4" d="M515.56,396.86V500.78c0,22.59-22.84,25.41-26.08,25.7q6.64-7.74,6.65-19.23V389.87q0-11.88-7-18.73S515.56,372.55,515.56,396.86Z"/><path class="cls-5" d="M538.74,522.39a25.71,25.71,0,0,0,2.9,4.09c-3.24-.29-26.08-3.11-26.08-25.7V396.86c0-24.31,26.46-25.72,26.46-25.72a42.62,42.62,0,0,0-4.3,7.21A29.71,29.71,0,0,0,535,390V507.25A29.81,29.81,0,0,0,538.74,522.39Z"/></svg>